#!OML:ASF X:\für Bonn\!DataBase\2005_08_12_Daniel\c3d\Daniel.ASF
:FULLY-SPECIFIED
:DEGREES
131
root 11.9809 5.42095 -0.798241 -706.196 -66.3119 -79.0515
lowerback 70.2576 4.78664 0.698386
upperback 15.1944 -0.20454 -5.81144
thorax -4.19704 -1.78124 -6.65785
lowerneck 3.3436 2.05455 -13.8345
upperneck 10.5893 2.00142 4.604
head 2.44193 0.495606 3.65823
rclavicle -1.59028e-014 4.77083e-014
rhumerus -29.7915 13.006 -91.4096
rradius 25.9821
rwrist 22.017
rhand -10.6366 -346.996
rfingers 7.12502
rthumb 15.3705 -376.405
lclavicle -1.59028e-014 4.77083e-014
lhumerus -419.054 53.5985 -346.504
lradius 17.6341
lwrist -52.9785
lhand -70.9841 299.064
lfingers 7.12502
lthumb -42.531 323.474
rfemur 181.668 21.8816 96.5182
rtibia 211.476
rfoot 134.497 107.835
rtoes 28.9898
lfemur -70.9032 57.6111 13.7242
ltibia 147.528
lfoot -19.3296 -18.2008
ltoes 10.2259
132
root 11.9981 5.43226 -0.78255 -705.54 -65.4174 -80.3039
lowerback 69.8583 4.46095 0.925183
upperback 15.2768 -0.287559 -5.47475
thorax -4.12467 -1.84108 -6.32276
lowerneck 3.07154 2.07934 -14.2052
upperneck 10.6926 2.06787 4.64467
head 2.50843 0.513491 3.73421
rclavicle 0 3.49861e-014
rhumerus -30.615 13.3887 -91.616
rradius 26.2685
rwrist 21.8841
rhand -10.7587 -346.918
rfingers 7.12502
rthumb 15.2529 -376.336
lclavicle 0 3.49861e-014
lhumerus -421.29 54.3021 -348.437
lradius 17.6741
lwrist -54.1976
lhand -71.384 295.885
lfingers 7.12502
lthumb -42.9051 320.165
rfemur 180.914 22.298 98.467
rtibia 211.936
rfoot 129.377 108.186
rtoes 28.8161
lfemur -74.4277 50.1662 7.85934
ltibia 145.501
lfoot -14.7707 -16.3117
ltoes 11.6384
133
root 12.0171 5.44718 -0.766108 -705.126 -64.4949 -81.3071
lowerback 69.5405 4.09558 1.1775
upperback 15.3427 -0.409366 -5.16521
thorax -4.06947 -1.91363 -6.01651
lowerneck 2.73935 2.07361 -14.4719
upperneck 10.8075 2.11066 4.6494
head 2.59141 0.523168 3.78327
rclavicle 2.22639e-014 -6.36111e-015
rhumerus -31.4628 13.7296 -91.8589
rradius 26.5616
rwrist 21.5615
rhand -10.8397 -346.858
rfingers 7.12502
rthumb 15.1749 -376.282
lclavicle 2.22639e-014 -6.36111e-015
lhumerus -423.581 55.0322 -350.499
lradius 17.7106
lwrist -55.512
lhand -71.6857 292.505
lfingers 7.12502
lthumb -43.1872 316.684
rfemur 180.176 22.7711 100.422
rtibia 212.421
rfoot 124.492 108.656
rtoes 28.4497
lfemur -76.152 42.121 3.6513
ltibia 143.048
lfoot -10.2226 -14.4729
ltoes 12.1567
134
root 12.0374 5.46315 -0.748794 -704.829 -63.5265 -82.1886
lowerback 69.2669 3.67674 1.47679
upperback 15.3997 -0.563308 -4.86016
thorax -4.02322 -1.99729 -5.72382
lowerneck 2.39432 2.05004 -14.6939
upperneck 10.9432 2.1365 4.62242
head 2.68535 0.524148 3.81584
rclavicle -6.36111e-015 -6.36111e-015
rhumerus -32.3454 13.823 -92.0713
rradius 26.9085
rwrist 21.365
rhand -10.872 -346.816
rfingers 7.12502
rthumb 15.1438 -376.242
lclavicle -6.36111e-015 -6.36111e-015
lhumerus -425.986 55.7884 -352.722
lradius 17.732
lwrist -56.8605
lhand -71.85 289.221
lfingers 7.12502
lthumb -43.3407 313.346
rfemur 179.406 23.2837 102.353
rtibia 212.932
rfoot 120.011 109.281
rtoes 28.0811
lfemur -76.5638 34.6448 0.839864
ltibia 140.246
lfoot -6.10713 -13.2046
ltoes 11.1684
135
root 12.0576 5.48057 -0.731817 -704.676 -62.5746 -82.898
lowerback 68.9506 3.28645 1.74836
upperback 15.4757 -0.701604 -4.52851
thorax -3.95231 -2.07666 -5.39806
lowerneck 2.17044 2.02041 -14.9552
upperneck 10.993 2.13451 4.62429
head 2.73586 0.513165 3.86095
rclavicle 1.59028e-014 5.08889e-014
rhumerus -33.286 13.806 -92.2173
rradius 27.3521
rwrist 21.1375
rhand -10.8923 -346.836
rfingers 7.12502
rthumb 15.1243 -376.264
lclavicle 1.59028e-014 5.08889e-014
lhumerus -428.244 56.4176 -354.811
lradius 17.7002
lwrist -58.1314
lhand -71.9338 286.055
lfingers 7.12502
lthumb -43.4191 310.151
rfemur 178.617 23.8307 104.04
rtibia 213.457
rfoot 116.133 110.054
rtoes 27.6884
lfemur -76.1578 28.4068 -1.02815
ltibia 137.24
lfoot -2.41543 -12.7951
ltoes 9.53464
